<svg xmlns="http://www.w3.org/2000/svg" viewBox="0 0 1600 760" preserveAspectRatio="xMidYMax slice">
<defs>
 <linearGradient id="sky" x1="0" y1="0" x2="0" y2="1"><stop stop-color="#02060a"/><stop offset=".56" stop-color="#05090e"/><stop offset="1" stop-color="#020407"/></linearGradient>
 <linearGradient id="back" x1="0" y1="0" x2="0" y2="1"><stop stop-color="#151b29"/><stop offset="1" stop-color="#06090d"/></linearGradient>
 <linearGradient id="mid" x1="0" y1="0" x2="0" y2="1"><stop stop-color="#0f1520"/><stop offset="1" stop-color="#030609"/></linearGradient>
 <linearGradient id="front" x1="0" y1="0" x2="0" y2="1"><stop stop-color="#0a0f16"/><stop offset="1" stop-color="#010204"/></linearGradient>
 <linearGradient id="road" x1="0" y1="0" x2="1" y2="1"><stop stop-color="#8fa6ff"/><stop offset=".45" stop-color="#d3ff72"/><stop offset="1" stop-color="#72e8ff"/></linearGradient>
 <filter id="g"><feGaussianBlur stdDeviation="5" result="b"/><feMerge><feMergeNode in="b"/><feMergeNode in="SourceGraphic"/></feMerge></filter>
 <filter id="s"><feGaussianBlur stdDeviation="22"/></filter>
</defs>
<rect width="1600" height="760" fill="url(#sky)"/>
<ellipse cx="900" cy="400" rx="650" ry="145" fill="#735fff" opacity=".055" filter="url(#s)"/>
<ellipse cx="1240" cy="440" rx="390" ry="110" fill="#caff62" opacity=".03" filter="url(#s)"/>
<g fill="#e5edff" opacity=".46"><circle cx="98" cy="88" r="1"/><circle cx="242" cy="144" r=".7"/><circle cx="392" cy="76" r=".9"/><circle cx="544" cy="134" r=".8"/><circle cx="720" cy="92" r="1"/><circle cx="894" cy="150" r=".7"/><circle cx="1050" cy="82" r="1.1"/><circle cx="1218" cy="126" r=".8"/><circle cx="1388" cy="72" r=".9"/><circle cx="1518" cy="146" r=".7"/></g>
<path d="M0 500 L104 452 L198 475 L316 362 L412 458 L542 310 L668 454 L792 334 L920 466 L1040 358 L1168 474 L1288 372 L1422 494 L1510 440 L1600 468 L1600 760 L0 760 Z" fill="url(#back)"/>
<path d="M0 552 L138 500 L244 535 L366 424 L470 522 L594 388 L712 548 L850 430 L974 544 L1102 450 L1230 556 L1362 470 L1492 566 L1600 514 L1600 760 L0 760 Z" fill="url(#mid)"/>
<path d="M0 612 L160 556 L280 594 L408 500 L520 606 L670 482 L810 624 L960 520 L1100 616 L1248 542 L1380 630 L1500 578 L1600 602 L1600 760 L0 760 Z" fill="url(#front)"/>
<g fill="none" stroke-linecap="round">
 <path d="M0 552 L138 500 L244 535 L366 424 L470 522 L594 388 L712 548 L850 430 L974 544 L1102 450 L1230 556 L1362 470 L1492 566 L1600 514" stroke="#8fa6ff" stroke-opacity=".4" stroke-width="2" filter="url(#g)"/>
 <path d="M420 500 L520 606 L670 482" stroke="#79e6ff" stroke-opacity=".38" stroke-width="2.4" filter="url(#g)"/>
 <path d="M974 544 L1102 450 L1230 556" stroke="#caff62" stroke-opacity=".4" stroke-width="2.4" filter="url(#g)"/>
</g>
<path d="M1000 760 C994 708 944 684 918 646 C888 604 895 568 954 534 C1014 498 1060 474 1082 432" fill="none" stroke="url(#road)" stroke-width="7" stroke-linecap="round" opacity=".9" filter="url(#g)"/>
<path d="M1000 760 C994 708 944 684 918 646 C888 604 895 568 954 534 C1014 498 1060 474 1082 432" fill="none" stroke="#fff" stroke-opacity=".4" stroke-width="1.2" stroke-linecap="round"/>
</svg>
