<svg xmlns="http://www.w3.org/2000/svg" viewBox="0 0 1600 2200" preserveAspectRatio="xMidYMin slice">
<defs>
  <linearGradient id="bg" x1="0" y1="0" x2="0" y2="1"><stop stop-color="#02060b"/><stop offset=".55" stop-color="#04080d"/><stop offset="1" stop-color="#03070b"/></linearGradient>
  <radialGradient id="n1" cx="75%" cy="17%" r="42%"><stop stop-color="#5268ff" stop-opacity=".22"/><stop offset=".32" stop-color="#6848d6" stop-opacity=".10"/><stop offset=".68" stop-color="#192247" stop-opacity=".035"/><stop offset="1" stop-opacity="0"/></radialGradient>
  <radialGradient id="n2" cx="18%" cy="22%" r="34%"><stop stop-color="#9bcf3b" stop-opacity=".08"/><stop offset=".5" stop-color="#29422d" stop-opacity=".03"/><stop offset="1" stop-opacity="0"/></radialGradient>
  <radialGradient id="n3" cx="86%" cy="43%" r="28%"><stop stop-color="#7be8ff" stop-opacity=".07"/><stop offset="1" stop-opacity="0"/></radialGradient>
  <linearGradient id="beam" x1="0" y1="0" x2="1" y2="1"><stop stop-color="#bfd0ff" stop-opacity="0"/><stop offset=".5" stop-color="#95aaff" stop-opacity=".26"/><stop offset="1" stop-color="#95aaff" stop-opacity="0"/></linearGradient>
  <filter id="blur20"><feGaussianBlur stdDeviation="20"/></filter>
  <filter id="blur7"><feGaussianBlur stdDeviation="7"/></filter>
</defs>
<rect width="1600" height="2200" fill="url(#bg)"/>
<rect width="1600" height="2200" fill="url(#n1)"/>
<rect width="1600" height="2200" fill="url(#n2)"/>
<rect width="1600" height="2200" fill="url(#n3)"/>
<g opacity=".85" fill="#e7eeff">
  <circle cx="72" cy="84" r="1.1"/><circle cx="146" cy="208" r=".7"/><circle cx="226" cy="124" r="1"/><circle cx="322" cy="70" r=".65"/><circle cx="408" cy="192" r=".8"/><circle cx="508" cy="108" r="1.1"/><circle cx="612" cy="244" r=".7"/><circle cx="714" cy="136" r=".9"/><circle cx="822" cy="72" r=".65"/><circle cx="918" cy="210" r="1.05"/><circle cx="1040" cy="128" r=".8"/><circle cx="1164" cy="68" r="1.2"/><circle cx="1292" cy="204" r=".7"/><circle cx="1424" cy="106" r="1"/><circle cx="1530" cy="244" r=".8"/>
  <circle cx="96" cy="420" r=".7"/><circle cx="184" cy="334" r="1.1"/><circle cx="278" cy="482" r=".8"/><circle cx="366" cy="376" r=".65"/><circle cx="472" cy="438" r="1"/><circle cx="568" cy="314" r=".8"/><circle cx="672" cy="512" r="1.15"/><circle cx="784" cy="398" r=".7"/><circle cx="884" cy="468" r=".9"/><circle cx="1008" cy="356" r=".7"/><circle cx="1126" cy="496" r="1.1"/><circle cx="1234" cy="386" r=".65"/><circle cx="1350" cy="456" r=".95"/><circle cx="1482" cy="346" r=".8"/>
  <circle cx="62" cy="726" r=".8"/><circle cx="176" cy="628" r="1"/><circle cx="296" cy="774" r=".65"/><circle cx="410" cy="684" r="1.1"/><circle cx="526" cy="748" r=".75"/><circle cx="648" cy="612" r=".9"/><circle cx="764" cy="804" r=".7"/><circle cx="886" cy="674" r="1.05"/><circle cx="1006" cy="746" r=".7"/><circle cx="1128" cy="634" r=".9"/><circle cx="1250" cy="786" r=".65"/><circle cx="1376" cy="692" r="1.1"/><circle cx="1502" cy="758" r=".75"/>
  <circle cx="116" cy="1030" r=".7"/><circle cx="242" cy="938" r=".9"/><circle cx="366" cy="1080" r=".65"/><circle cx="492" cy="966" r="1.05"/><circle cx="618" cy="1044" r=".8"/><circle cx="744" cy="924" r=".7"/><circle cx="870" cy="1070" r=".9"/><circle cx="996" cy="952" r=".65"/><circle cx="1122" cy="1036" r="1.1"/><circle cx="1248" cy="916" r=".75"/><circle cx="1374" cy="1062" r=".9"/><circle cx="1500" cy="946" r=".7"/>
</g>
<g fill="#caff62" opacity=".55"><circle cx="238" cy="164" r="1"/><circle cx="1268" cy="286" r=".9"/><circle cx="1460" cy="620" r="1.1"/><circle cx="544" cy="870" r=".85"/></g>
<g opacity=".24" fill="none" stroke="#92a7ff">
  <path d="M1086 -40 C1022 220 1044 438 1114 624 S1214 966 1176 1268"/>
  <path d="M1144 -30 C1106 230 1116 446 1174 634 S1290 978 1252 1306" opacity=".45"/>
  <ellipse cx="1088" cy="560" rx="412" ry="158" transform="rotate(-8 1088 560)"/>
  <ellipse cx="1088" cy="560" rx="286" ry="104" transform="rotate(15 1088 560)" opacity=".48"/>
</g>
<path d="M1050 -40 L1108 -40 L1248 1330 L1174 1330 Z" fill="url(#beam)" opacity=".16" filter="url(#blur7)"/>
<ellipse cx="1090" cy="650" rx="430" ry="210" fill="#586dff" opacity=".055" filter="url(#blur20)"/>
<ellipse cx="1200" cy="640" rx="260" ry="145" fill="#caff62" opacity=".035" filter="url(#blur20)"/>
<path d="M0 1510 C160 1488 246 1506 360 1492 S560 1452 682 1470 S890 1518 1000 1494 S1204 1438 1332 1464 S1496 1510 1600 1482" stroke="#7585c9" stroke-opacity=".07" fill="none"/>
</svg>
